<svg width="213" height="173" viewBox="0 0 213 173" fill="none" xmlns="http://www.w3.org/2000/svg">
<mask id="path-1-inside-1_11_298" fill="white">
<path fill-rule="evenodd" clip-rule="evenodd" d="M105.583 2.97727C91.3614 -6.91586 73.8 9.80203 82.9817 24.4928L116.163 77.5831C119.391 82.7477 119.391 89.3009 116.163 94.4654L82.9817 147.556C73.8 162.247 91.3615 178.964 105.583 169.071L206.168 99.0986C215.277 92.7621 215.277 79.2864 206.168 72.9499L105.583 2.97727ZM25.0525 36.1831C11.2426 26.6888 -5.97751 42.2215 2.04746 56.934L13.755 78.3977C16.3479 83.1515 16.3479 88.8971 13.755 93.6508L2.04747 115.115C-5.97749 129.827 11.2426 145.36 25.0525 135.865L78.4588 99.1486C87.6639 92.8201 87.6639 79.2285 78.4588 72.9L25.0525 36.1831Z"/>
</mask>
<path fill-rule="evenodd" clip-rule="evenodd" d="M105.583 2.97727C91.3614 -6.91586 73.8 9.80203 82.9817 24.4928L116.163 77.5831C119.391 82.7477 119.391 89.3009 116.163 94.4654L82.9817 147.556C73.8 162.247 91.3615 178.964 105.583 169.071L206.168 99.0986C215.277 92.7621 215.277 79.2864 206.168 72.9499L105.583 2.97727ZM25.0525 36.1831C11.2426 26.6888 -5.97751 42.2215 2.04746 56.934L13.755 78.3977C16.3479 83.1515 16.3479 88.8971 13.755 93.6508L2.04747 115.115C-5.97749 129.827 11.2426 145.36 25.0525 135.865L78.4588 99.1486C87.6639 92.8201 87.6639 79.2285 78.4588 72.9L25.0525 36.1831Z" fill="url(#paint0_linear_11_298)"/>
<path d="M82.9817 24.4928L80.8207 25.8433L82.9817 24.4928ZM105.583 2.97727L104.128 5.06917L105.583 2.97727ZM116.163 77.5831L118.324 76.2325L116.163 77.5831ZM116.163 94.4654L114.002 93.1149L116.163 94.4654ZM82.9817 147.556L85.1427 148.906L82.9817 147.556ZM105.583 169.071L104.128 166.979H104.128L105.583 169.071ZM206.168 99.0986L204.713 97.0068L206.168 99.0986ZM206.168 72.9499L207.624 70.858L206.168 72.9499ZM2.04746 56.934L4.28458 55.7137L2.04746 56.934ZM25.0525 36.1831L23.6088 38.283L25.0525 36.1831ZM13.755 78.3977L15.9921 77.1775L13.755 78.3977ZM13.755 93.6508L11.5178 92.4306L13.755 93.6508ZM2.04747 115.115L4.2846 116.335L2.04747 115.115ZM25.0525 135.865L26.4962 137.965H26.4962L25.0525 135.865ZM78.4588 99.1486L79.9025 101.249H79.9025L78.4588 99.1486ZM78.4588 72.9L77.0152 74.9999L78.4588 72.9ZM85.1426 23.1422C77.43 10.802 92.1816 -3.24108 104.128 5.06917L107.038 0.885369C90.5413 -10.5906 70.17 8.80207 80.8207 25.8433L85.1426 23.1422ZM118.324 76.2325L85.1426 23.1422L80.8207 25.8433L114.002 78.9337L118.324 76.2325ZM118.324 95.816C122.068 89.8251 122.068 82.2234 118.324 76.2325L114.002 78.9337C116.714 83.2719 116.714 88.7766 114.002 93.1149L118.324 95.816ZM85.1427 148.906L118.324 95.816L114.002 93.1149L80.8208 146.205L85.1427 148.906ZM104.128 166.979C92.1816 175.29 77.43 161.247 85.1427 148.906L80.8208 146.205C70.17 163.246 90.5413 182.639 107.038 171.163L104.128 166.979ZM204.713 97.0068L104.128 166.979L107.038 171.163L207.624 101.191L204.713 97.0068ZM204.713 75.0418C212.365 80.3645 212.365 91.6841 204.713 97.0068L207.624 101.191C218.19 93.8402 218.19 78.2084 207.624 70.858L204.713 75.0418ZM104.128 5.06917L204.713 75.0418L207.624 70.858L107.038 0.885369L104.128 5.06917ZM4.28458 55.7137C-2.45638 43.3553 12.0085 30.3078 23.6088 38.283L26.4962 34.0832C10.4767 23.0698 -9.49863 41.0878 -0.189668 58.1542L4.28458 55.7137ZM15.9921 77.1775L4.28458 55.7137L-0.189669 58.1542L11.5178 79.618L15.9921 77.1775ZM15.9921 94.8711C18.9999 89.3567 18.9999 82.6919 15.9921 77.1775L11.5178 79.618C13.6959 83.6112 13.6959 88.4374 11.5178 92.4306L15.9921 94.8711ZM4.2846 116.335L15.9921 94.8711L11.5178 92.4306L-0.189656 113.894L4.2846 116.335ZM23.6088 133.766C12.0085 141.741 -2.45637 128.693 4.2846 116.335L-0.189656 113.894C-9.49861 130.961 10.4767 148.979 26.4962 137.965L23.6088 133.766ZM77.0151 97.0487L23.6088 133.766L26.4962 137.965L79.9025 101.249L77.0151 97.0487ZM77.0152 74.9999C84.7474 80.3158 84.7474 91.7328 77.0151 97.0487L79.9025 101.249C90.5804 93.9075 90.5804 78.1411 79.9025 70.8001L77.0152 74.9999ZM23.6088 38.283L77.0152 74.9999L79.9025 70.8001L26.4962 34.0832L23.6088 38.283Z" fill="url(#paint1_linear_11_298)" mask="url(#path-1-inside-1_11_298)"/>
<defs>
<linearGradient id="paint0_linear_11_298" x1="67.0851" y1="162.734" x2="136.643" y2="0.591183" gradientUnits="userSpaceOnUse">
<stop stop-color="white" stop-opacity="0.18"/>
<stop offset="1" stop-color="white" stop-opacity="0.49"/>
</linearGradient>
<linearGradient id="paint1_linear_11_298" x1="67.0851" y1="162.734" x2="136.643" y2="0.591183" gradientUnits="userSpaceOnUse">
<stop stop-color="white" stop-opacity="0.18"/>
<stop offset="1" stop-color="white" stop-opacity="0.49"/>
</linearGradient>
</defs>
</svg>
