<svg width="261" height="212" viewBox="0 0 261 212" fill="none" xmlns="http://www.w3.org/2000/svg">
<path d="M297.996 4.33044C297.996 2.49109 296.509 1 294.676 1H195.719C195.276 1 194.916 1.36071 194.916 1.80568C194.916 1.9471 194.879 2.08604 194.809 2.20852L139.975 97.5007C137.447 101.894 130.961 101.812 127.905 97.7703C115.019 80.7246 94.5861 69.7113 71.5831 69.7113C32.6011 69.7113 1 101.34 1 140.356C1 179.371 32.6011 211 71.5831 211C99.3717 211 123.41 194.928 134.923 171.564C134.963 171.482 135.064 171.452 135.142 171.497C135.217 171.54 135.313 171.515 135.356 171.439L212.615 37.1759C213.761 35.1832 215.88 33.9557 218.173 33.9557H232.878C236.423 33.9557 239.297 36.8392 239.297 40.3961V99.0357C239.297 102.593 242.171 105.476 245.716 105.476H291.581C295.126 105.476 298 102.593 298 99.0357L297.998 7.66089L297.996 4.33044Z" fill="url(#paint0_linear_7_562)"/>
<path d="M297.998 7.66089L298 99.0357C298 102.593 295.126 105.476 291.581 105.476H245.716C242.171 105.476 239.297 102.593 239.297 99.0357V40.3961C239.297 36.8392 236.423 33.9557 232.878 33.9557H218.173C215.88 33.9557 213.761 35.1832 212.614 37.1759L135.356 171.439C135.313 171.515 135.217 171.54 135.142 171.497C135.064 171.452 134.963 171.482 134.923 171.564C123.41 194.928 99.3717 211 71.5831 211C32.6011 211 1 179.371 1 140.356C1 101.34 32.6011 69.7113 71.5831 69.7113C94.5861 69.7113 115.019 80.7246 127.905 97.7703C130.961 101.812 137.447 101.894 139.975 97.5007L194.809 2.20852C194.879 2.08604 194.916 1.9471 194.916 1.80568C194.916 1.36071 195.276 1 195.719 1H294.676C296.509 1 297.996 2.49109 297.996 4.33044L297.998 7.66089ZM297.998 7.66089C297.997 7.66089 297.998 7.66212 297.998 7.66089Z" stroke="url(#paint1_linear_7_562)" stroke-width="2"/>
<defs>
<linearGradient id="paint0_linear_7_562" x1="94.5412" y1="199.631" x2="171.663" y2="-5.73912" gradientUnits="userSpaceOnUse">
<stop stop-color="white" stop-opacity="0.18"/>
<stop offset="1" stop-color="white" stop-opacity="0.49"/>
</linearGradient>
<linearGradient id="paint1_linear_7_562" x1="94.5412" y1="199.631" x2="171.663" y2="-5.73912" gradientUnits="userSpaceOnUse">
<stop stop-color="white" stop-opacity="0.18"/>
<stop offset="1" stop-color="white" stop-opacity="0.49"/>
</linearGradient>
</defs>
</svg>
