<svg width="301" height="234" viewBox="0 0 301 234" fill="none" xmlns="http://www.w3.org/2000/svg">
<mask id="path-1-inside-1_11_294" fill="white">
<path fill-rule="evenodd" clip-rule="evenodd" d="M68.4483 118.195C70.5681 80.3053 79.344 52.1694 91.3246 33.9635C105.072 13.0723 122.595 5.68043 139.499 10.155C156.874 14.7541 175.359 32.2803 189.577 65.3168C200.877 91.5721 209.265 127.181 212.188 172.585C165.028 172.847 127.026 186.494 127.026 203.29C127.026 220.251 165.773 234 213.571 234C261.368 234 300.116 220.251 300.116 203.29C300.116 187.23 265.371 174.049 221.097 172.695C218.165 126.195 209.583 89.326 197.738 61.8046C183.035 27.6422 162.959 7.17438 141.772 1.56637C120.115 -4.16615 99.0764 6.0218 83.903 29.0796C70.7557 49.0584 61.6832 79.0095 59.5517 118.176C26.3197 118.76 0 126.646 0 136.288C0 146.31 28.4357 154.434 63.5129 154.434C98.5901 154.434 127.026 146.31 127.026 136.288C127.026 126.74 101.219 118.915 68.4483 118.195Z"/>
</mask>
<path fill-rule="evenodd" clip-rule="evenodd" d="M68.4483 118.195C70.5681 80.3053 79.344 52.1694 91.3246 33.9635C105.072 13.0723 122.595 5.68043 139.499 10.155C156.874 14.7541 175.359 32.2803 189.577 65.3168C200.877 91.5721 209.265 127.181 212.188 172.585C165.028 172.847 127.026 186.494 127.026 203.29C127.026 220.251 165.773 234 213.571 234C261.368 234 300.116 220.251 300.116 203.29C300.116 187.23 265.371 174.049 221.097 172.695C218.165 126.195 209.583 89.326 197.738 61.8046C183.035 27.6422 162.959 7.17438 141.772 1.56637C120.115 -4.16615 99.0764 6.0218 83.903 29.0796C70.7557 49.0584 61.6832 79.0095 59.5517 118.176C26.3197 118.76 0 126.646 0 136.288C0 146.31 28.4357 154.434 63.5129 154.434C98.5901 154.434 127.026 146.31 127.026 136.288C127.026 126.74 101.219 118.915 68.4483 118.195Z" fill="url(#paint0_linear_11_294)"/>
<path d="M91.3246 33.9635L93.0506 35.0993L91.3246 33.9635ZM68.4483 118.195L66.3854 118.08L66.266 120.214L68.4029 120.261L68.4483 118.195ZM139.499 10.155L138.97 12.1524L139.499 10.155ZM189.577 65.3168L187.679 66.1336L189.577 65.3168ZM212.188 172.585L212.199 174.651L214.391 174.639L214.25 172.452L212.188 172.585ZM221.097 172.695L219.035 172.826L219.154 174.703L221.034 174.761L221.097 172.695ZM197.738 61.8046L195.84 62.6214L197.738 61.8046ZM141.772 1.56637L142.301 -0.430985L141.772 1.56637ZM83.903 29.0796L82.177 27.9438L83.903 29.0796ZM59.5517 118.176L59.588 120.242L61.5103 120.208L61.6148 118.288L59.5517 118.176ZM89.5986 32.8277C77.3539 51.4351 68.5179 79.9628 66.3854 118.08L70.5112 118.311C72.6183 80.6478 81.3342 52.9037 93.0506 35.0993L89.5986 32.8277ZM140.028 8.15765C122.022 3.39151 103.68 11.4287 89.5986 32.8277L93.0506 35.0993C106.464 14.716 123.167 7.96935 138.97 12.1524L140.028 8.15765ZM191.475 64.5C177.144 31.2007 158.288 12.9912 140.028 8.15765L138.97 12.1524C155.459 16.517 173.574 33.36 187.679 66.1336L191.475 64.5ZM214.25 172.452C211.315 126.876 202.891 91.0245 191.475 64.5L187.679 66.1336C198.863 92.1197 207.214 127.485 210.126 172.718L214.25 172.452ZM212.177 170.519C188.427 170.651 166.893 174.15 151.222 179.793C143.396 182.612 136.921 186.004 132.364 189.868C127.817 193.724 124.96 198.25 124.96 203.29H129.092C129.092 199.933 130.985 196.455 135.037 193.019C139.079 189.592 145.053 186.407 152.622 183.681C167.743 178.236 188.789 174.781 212.199 174.651L212.177 170.519ZM124.96 203.29C124.96 208.38 127.872 212.945 132.499 216.827C137.137 220.718 143.724 224.128 151.683 226.953C167.62 232.607 189.501 236.066 213.571 236.066V231.934C189.844 231.934 168.452 228.518 153.065 223.058C145.363 220.325 139.276 217.119 135.155 213.661C131.023 210.195 129.092 206.681 129.092 203.29H124.96ZM213.571 236.066C237.641 236.066 259.522 232.607 275.458 226.953C283.417 224.128 290.005 220.718 294.643 216.827C299.27 212.945 302.182 208.38 302.182 203.29H298.05C298.05 206.681 296.119 210.195 291.987 213.661C287.866 217.119 281.779 220.325 274.076 223.058C258.69 228.518 237.298 231.934 213.571 231.934V236.066ZM302.182 203.29C302.182 198.472 299.568 194.12 295.369 190.381C291.167 186.641 285.191 183.335 277.951 180.549C263.456 174.972 243.458 171.312 221.161 170.63L221.034 174.761C243.01 175.432 262.522 179.04 276.467 184.406C283.448 187.092 288.925 190.178 292.621 193.468C296.32 196.761 298.05 200.079 298.05 203.29H302.182ZM195.84 62.6214C207.568 89.8725 216.113 126.497 219.035 172.826L223.159 172.565C220.216 125.893 211.597 88.7795 199.636 60.9878L195.84 62.6214ZM141.244 3.56373C161.543 8.93694 181.25 28.7199 195.84 62.6214L199.636 60.9878C184.821 26.5644 164.375 5.41183 142.301 -0.430985L141.244 3.56373ZM85.6289 30.2154C100.473 7.65813 120.695 -1.87543 141.244 3.56373L142.301 -0.430985C119.536 -6.45687 97.6798 4.38548 82.177 27.9438L85.6289 30.2154ZM61.6148 118.288C63.7339 79.3496 72.7466 49.7916 85.6289 30.2154L82.177 27.9438C68.7648 48.3252 59.6325 78.6694 57.4886 118.064L61.6148 118.288ZM59.5154 116.11C42.7699 116.405 27.682 118.538 16.7152 121.858C11.2451 123.514 6.6825 125.5 3.44169 127.783C0.258426 130.026 -2.06614 132.866 -2.06614 136.288H2.06614C2.06614 134.888 3.03153 133.127 5.82171 131.161C8.55434 129.236 12.6486 127.406 17.9125 125.813C28.4135 122.634 43.1015 120.532 59.588 120.242L59.5154 116.11ZM-2.06614 136.288C-2.06614 139.842 0.438232 142.769 3.83461 145.063C7.30311 147.406 12.1863 149.435 18.0349 151.106C29.7602 154.456 45.8384 156.501 63.5129 156.501V152.368C46.1102 152.368 30.432 150.35 19.1701 147.133C13.5251 145.52 9.10706 143.638 6.1477 141.639C3.11623 139.591 2.06614 137.745 2.06614 136.288H-2.06614ZM63.5129 156.501C81.1874 156.501 97.2656 154.456 108.991 151.106C114.839 149.435 119.723 147.406 123.191 145.063C126.588 142.769 129.092 139.842 129.092 136.288H124.96C124.96 137.745 123.91 139.591 120.878 141.639C117.919 143.638 113.501 145.52 107.856 147.133C96.5938 150.35 80.9156 152.368 63.5129 152.368V156.501ZM129.092 136.288C129.092 132.899 126.811 130.081 123.68 127.851C120.495 125.583 116.01 123.608 110.633 121.956C99.8513 118.645 85.007 116.492 68.4937 116.13L68.4029 120.261C84.6603 120.618 99.1047 122.738 109.419 125.906C114.59 127.494 118.605 129.311 121.283 131.217C124.015 133.162 124.96 134.902 124.96 136.288H129.092Z" fill="url(#paint1_linear_11_294)" mask="url(#path-1-inside-1_11_294)"/>
<defs>
<linearGradient id="paint0_linear_11_294" x1="94.5225" y1="221.332" x2="186.821" y2="-1.55951" gradientUnits="userSpaceOnUse">
<stop stop-color="white" stop-opacity="0.18"/>
<stop offset="1" stop-color="white" stop-opacity="0.49"/>
</linearGradient>
<linearGradient id="paint1_linear_11_294" x1="94.5225" y1="221.332" x2="186.821" y2="-1.55951" gradientUnits="userSpaceOnUse">
<stop stop-color="white" stop-opacity="0.18"/>
<stop offset="1" stop-color="white" stop-opacity="0.49"/>
</linearGradient>
</defs>
</svg>
