<svg width="63" height="63" viewBox="0 0 63 63" fill="none" xmlns="http://www.w3.org/2000/svg">
<path fill-rule="evenodd" clip-rule="evenodd" d="M58.4458 31.5C58.4458 46.3818 46.3818 58.4458 31.5 58.4458C16.6182 58.4458 4.55422 46.3818 4.55422 31.5C4.55422 16.6182 16.6182 4.55422 31.5 4.55422C46.3818 4.55422 58.4458 16.6182 58.4458 31.5ZM63 31.5C63 48.8971 48.8971 63 31.5 63C14.103 63 0 48.8971 0 31.5C0 14.103 14.103 0 31.5 0C48.8971 0 63 14.103 63 31.5ZM50.6657 19.3554C51.1633 19.3554 51.567 19.759 51.567 20.2568V23.8148V31.3102C51.567 32.5154 50.5902 33.4925 49.3848 33.4925H45.7794C44.5742 33.4925 43.5971 32.5154 43.5971 31.3102V25.9523C43.5971 24.7718 42.6401 23.8148 41.4595 23.8148C40.6959 23.8148 39.9902 24.2222 39.6084 24.8836L29.4849 42.418C29.479 42.4282 29.4659 42.4317 29.4557 42.4258C29.445 42.4196 29.4313 42.4238 29.4259 42.4349C27.8629 45.5967 24.5991 47.7718 20.8261 47.7718C15.5336 47.7718 11.2432 43.4921 11.2432 38.2127C11.2432 32.9334 15.5336 28.6536 20.8261 28.6536C23.0927 28.6536 25.1755 29.4386 26.8162 30.7509C28.1586 31.8246 30.4416 31.8421 31.3011 30.3534L37.5579 19.5163C37.5674 19.5 37.5723 19.4815 37.5723 19.4627C37.5723 19.4034 37.6203 19.3554 37.6796 19.3554H50.6657Z" fill="black"/>
</svg>
