<?xml version="1.0" standalone="no"?>
<!DOCTYPE svg PUBLIC "-//W3C//DTD SVG 20010904//EN"
 "http://www.w3.org/TR/2001/REC-SVG-20010904/DTD/svg10.dtd">
<svg version="1.0" xmlns="http://www.w3.org/2000/svg"
 width="1216.000000pt" height="1216.000000pt" viewBox="0 0 1216.000000 1216.000000"
 preserveAspectRatio="xMidYMid meet">
<metadata>
Created by potrace 1.14, written by Peter Selinger 2001-2017
</metadata>
<g transform="translate(0.000000,1216.000000) scale(0.100000,-0.100000)"
fill="#000000" stroke="none">
<path d="M7864 10378 c-5 -17 -84 -162 -124 -228 -5 -8 -44 -76 -87 -150 -42
-74 -81 -136 -85 -138 -4 -2 -8 -8 -8 -13 0 -8 -216 -390 -260 -459 -33 -54
-100 -174 -100 -181 0 -5 -4 -9 -10 -9 -5 0 -10 -4 -10 -10 0 -5 -20 -44 -45
-86 -25 -41 -45 -78 -45 -81 0 -3 -8 -17 -19 -31 -10 -15 -29 -47 -43 -72 -14
-25 -35 -61 -46 -80 -11 -19 -33 -57 -47 -85 -15 -27 -34 -57 -42 -67 -8 -9
-15 -23 -17 -31 -1 -8 -8 -23 -16 -32 -8 -10 -24 -35 -35 -55 -11 -20 -42 -75
-68 -121 -26 -46 -60 -104 -74 -129 -14 -25 -32 -56 -41 -70 -9 -14 -17 -27
-17 -30 0 -3 -13 -24 -28 -47 -15 -24 -27 -45 -27 -47 0 -3 -20 -39 -45 -79
-25 -41 -45 -78 -45 -81 0 -4 -5 -12 -11 -19 -5 -7 -54 -88 -108 -182 -321
-559 -386 -670 -393 -673 -4 -2 -8 -12 -8 -22 0 -10 -3 -20 -7 -22 -9 -4 -36
-48 -61 -98 -9 -19 -19 -37 -23 -40 -4 -4 -58 -97 -117 -201 -11 -20 -26 -47
-34 -60 -7 -13 -15 -26 -18 -29 -3 -3 -19 -31 -35 -63 -36 -71 -97 -136 -150
-162 -41 -20 -189 -31 -210 -16 -5 4 -26 14 -45 22 -50 19 -88 52 -140 119
-143 185 -308 347 -543 536 -9 8 -21 14 -26 14 -5 0 -11 4 -13 9 -4 11 -207
145 -247 162 -17 8 -31 17 -31 21 0 5 -6 8 -14 8 -8 0 -21 7 -30 15 -8 9 -18
16 -21 15 -3 0 -52 22 -110 50 -57 27 -109 50 -114 50 -5 0 -22 6 -38 14 -48
24 -75 34 -168 64 -132 43 -248 75 -280 77 -11 1 -27 5 -35 8 -13 5 -103 21
-185 33 -213 32 -558 36 -735 9 -19 -3 -55 -7 -80 -10 -25 -3 -56 -7 -70 -10
-14 -2 -50 -10 -80 -16 -74 -14 -293 -70 -305 -77 -5 -4 -18 -8 -28 -9 -33 -5
-251 -95 -362 -149 -103 -50 -302 -165 -359 -207 -6 -4 -45 -32 -86 -63 -274
-201 -557 -503 -710 -759 -13 -22 -27 -42 -31 -45 -3 -3 -19 -30 -34 -60 -15
-30 -31 -57 -34 -60 -9 -6 -101 -198 -131 -270 -12 -30 -28 -68 -35 -85 -7
-16 -25 -68 -40 -115 -14 -47 -29 -92 -32 -100 -3 -8 -8 -24 -10 -35 -2 -11
-8 -38 -14 -60 -6 -22 -13 -48 -15 -58 -2 -10 -5 -26 -8 -35 -3 -9 -8 -33 -11
-52 -3 -19 -8 -42 -10 -50 -2 -8 -7 -40 -10 -70 -4 -30 -8 -57 -10 -60 -18
-29 -27 -540 -12 -665 11 -86 19 -147 23 -170 2 -11 6 -33 9 -50 3 -16 10 -55
16 -85 7 -30 12 -60 13 -67 1 -7 5 -16 9 -19 4 -4 7 -17 7 -28 0 -12 9 -47 20
-79 11 -32 19 -62 18 -65 -1 -4 2 -14 5 -22 3 -8 24 -62 45 -120 45 -120 66
-170 127 -291 55 -108 164 -293 176 -297 5 -2 9 -8 9 -13 0 -9 33 -61 55 -85
6 -6 19 -23 30 -38 11 -15 27 -36 35 -46 8 -10 26 -33 40 -50 98 -125 297
-319 425 -417 27 -21 61 -48 75 -61 14 -12 33 -25 43 -28 9 -3 17 -10 17 -15
0 -5 7 -9 15 -9 8 0 15 -4 15 -10 0 -5 7 -10 15 -10 8 0 15 -4 15 -9 0 -5 9
-13 20 -16 11 -3 26 -12 32 -19 27 -26 303 -176 324 -176 7 0 14 -3 16 -7 2
-5 30 -19 63 -32 33 -13 78 -31 100 -41 72 -32 320 -108 380 -117 17 -2 37 -6
45 -9 8 -3 26 -8 40 -10 14 -3 48 -9 75 -14 28 -6 70 -12 95 -15 25 -3 61 -7
80 -10 38 -5 196 -16 275 -19 28 -1 56 2 63 7 7 6 12 6 12 0 0 -5 15 -8 33 -7
17 2 73 5 123 8 51 3 116 9 145 12 30 4 65 8 79 10 14 1 25 3 25 4 0 1 14 3
32 5 17 2 65 11 105 19 40 9 82 18 93 20 26 5 124 32 205 58 89 27 317 118
360 142 19 11 41 21 49 23 8 1 17 5 20 10 3 4 12 9 19 11 7 1 30 13 51 27 21
13 42 21 45 18 3 -4 6 -1 6 5 0 7 6 12 14 12 8 0 16 4 18 8 2 5 28 23 58 40
77 46 94 56 100 62 3 3 30 23 60 44 193 137 409 340 552 521 27 33 52 65 57
71 4 5 29 39 55 75 25 35 50 69 56 76 5 7 10 14 10 17 0 2 16 28 35 57 19 30
35 59 35 65 0 7 4 14 9 16 4 1 25 37 47 78 21 41 45 80 55 87 9 7 22 26 29 43
7 16 16 30 21 30 5 0 9 5 9 11 0 6 23 48 50 95 28 47 50 89 50 94 0 6 5 10 10
10 6 0 10 4 10 9 0 11 130 239 161 283 10 15 19 34 19 43 0 8 4 15 8 15 5 0
17 18 27 40 10 22 21 40 24 40 4 0 12 12 18 27 7 16 28 55 47 88 20 33 47 80
61 105 14 25 30 52 35 60 30 47 100 173 100 181 0 5 3 9 8 9 4 0 15 17 25 38
18 39 25 50 72 122 16 25 29 47 29 50 -1 3 4 14 11 25 47 76 155 268 155 276
0 5 4 9 9 9 5 0 11 8 14 18 4 9 22 44 42 77 19 33 40 69 45 80 6 11 16 29 23
40 7 11 27 47 46 80 19 33 38 62 41 65 9 7 24 43 22 53 -1 4 1 7 6 7 4 0 21
26 37 58 17 31 33 59 38 60 4 2 7 7 7 12 0 4 25 49 55 99 30 51 55 94 55 96 0
2 33 59 73 127 40 68 83 144 97 171 14 26 28 47 32 47 5 0 8 4 8 9 0 7 41 83
139 251 17 30 36 62 41 70 5 8 17 31 27 50 9 19 20 37 23 40 3 3 44 72 91 153
46 81 97 169 112 195 15 26 31 55 34 65 3 9 9 17 13 17 4 0 10 8 13 18 3 9 20
42 38 72 39 69 117 200 129 220 6 8 14 24 20 35 5 11 29 54 54 95 24 41 55 95
68 120 13 25 25 47 28 50 6 5 54 87 119 203 9 16 21 36 26 45 6 9 43 76 84
147 41 72 92 158 113 193 21 34 34 62 30 62 -4 0 -2 4 4 8 6 4 22 27 36 52 58
103 71 125 77 130 3 3 15 23 27 45 40 77 87 160 106 187 10 14 18 31 18 37 0
6 5 11 10 11 6 0 10 7 10 17 0 9 7 23 15 32 8 9 26 30 39 46 13 17 46 42 72
55 l49 25 365 0 c362 0 365 0 410 -23 66 -34 115 -91 138 -162 3 -8 6 -571 7
-1250 3 -1187 4 -1237 22 -1283 38 -96 124 -158 228 -164 33 -2 161 -3 285 -2
124 0 232 0 240 0 8 0 260 0 560 1 300 0 552 0 560 -1 96 -4 263 2 294 10 107
29 181 116 189 224 1 11 7 23 12 27 7 5 7 8 0 8 -11 0 -13 149 -2 167 4 7 4
14 -1 17 -9 5 -8 128 2 144 3 6 3 13 -2 16 -9 5 -8 128 2 144 3 6 3 13 -2 16
-9 5 -8 128 2 144 3 6 3 13 -2 16 -9 5 -8 128 2 144 3 6 3 13 -2 16 -9 5 -8
128 2 144 3 6 3 13 -2 16 -9 5 -8 128 2 144 3 6 3 13 -1 15 -10 6 -9 1409 0
1424 4 7 4 14 -1 17 -9 5 -8 128 2 144 3 6 3 13 -2 16 -9 5 -8 128 2 144 3 6
3 13 -2 16 -9 5 -8 128 2 144 3 6 3 13 -2 16 -9 5 -8 128 2 144 3 6 3 13 -2
16 -9 5 -8 128 2 144 3 6 3 13 -2 16 -9 5 -8 128 2 144 3 6 3 13 -1 15 -7 5
-9 122 -3 137 1 3 1 10 0 15 -1 6 -3 44 -5 85 -2 89 -14 117 -60 147 l-34 23
-2035 0 -2035 0 -7 -22z"/>
</g>
</svg>
