<svg width="38" height="27" viewBox="0 0 38 27" fill="none" xmlns="http://www.w3.org/2000/svg">
<path fill-rule="evenodd" clip-rule="evenodd" d="M37.6181 0.81299C37.6181 0.363988 37.2541 0 36.8051 0H24.6642C24.608 0 24.5625 0.0455339 24.5625 0.101703V0.101703C24.5625 0.119555 24.5578 0.137093 24.5489 0.152554L17.6031 12.183C17.2829 12.7376 16.4612 12.7272 16.0742 12.2168C14.4422 10.0644 11.8538 8.67359 8.93974 8.67359C4.00246 8.67359 0 12.6661 0 17.5912C0 22.5163 4.00246 26.5088 8.93974 26.5088C12.4593 26.5088 15.5039 24.4799 16.9621 21.5306C16.9674 21.5199 16.9807 21.5159 16.9911 21.5218V21.5218C17.001 21.5276 17.0136 21.5242 17.0193 21.5143L26.8041 4.56657C26.9493 4.31503 27.2177 4.16008 27.5082 4.16008H29.3667C29.8157 4.16008 30.1797 4.52406 30.1797 4.97307V12.3753C30.1797 12.8243 30.5437 13.1883 30.9927 13.1883H36.8017C37.2507 13.1883 37.6147 12.8243 37.6147 12.3753V4.16175C37.6147 4.16083 37.6155 4.16008 37.6164 4.16008V4.16008C37.6173 4.16008 37.6181 4.15933 37.6181 4.15841V0.81299Z" fill="#040404"/>
</svg>
