<svg width="25" height="24" viewBox="0 0 25 24" fill="none" xmlns="http://www.w3.org/2000/svg">
  <path d="M20.8317 17.9704C21.2338 17.4092 21.1049 16.6284 20.5437 16.2262C19.9826 15.8241 19.2017 15.9531 18.7996 16.5142L20.8317 17.9704ZM14.5058 4.51408C15.1727 4.69275 15.8581 4.29703 16.0368 3.63019C16.2155 2.96336 15.8197 2.27794 15.1529 2.09926L14.5058 4.51408ZM18.7996 16.5142C17.8564 17.8305 16.5245 18.8182 14.9912 19.3387L15.7948 21.706C17.8228 21.0176 19.5842 19.7112 20.8317 17.9704L18.7996 16.5142ZM14.9912 19.3387C13.4578 19.8592 11.7999 19.8864 10.2503 19.4163L9.52458 21.8086C11.574 22.4303 13.7667 22.3945 15.7948 21.706L14.9912 19.3387ZM10.2503 19.4163C8.70071 18.9462 7.33729 18.0026 6.35151 16.7179L4.36813 18.2398C5.6719 19.9389 7.47513 21.1869 9.52458 21.8086L10.2503 19.4163ZM6.35151 16.7179C5.36574 15.4332 4.80713 13.872 4.75415 12.2536L2.25549 12.3354C2.32556 14.4759 3.06436 16.5407 4.36813 18.2398L6.35151 16.7179ZM4.75415 12.2536C4.70117 10.6351 5.15647 9.04074 6.05611 7.69433L3.97744 6.30541C2.78759 8.08614 2.18542 10.1948 2.25549 12.3354L4.75415 12.2536ZM6.05611 7.69433C6.95575 6.34792 8.25454 5.31713 9.77006 4.74673L8.88944 2.40697C6.88504 3.16137 5.16729 4.52467 3.97744 6.30541L6.05611 7.69433ZM9.77006 4.74673C11.2856 4.17633 12.9417 4.09497 14.5058 4.51408L15.1529 2.09926C13.0842 1.54496 10.8938 1.65256 8.88944 2.40697L9.77006 4.74673Z" fill="#D0D0D0"/>
</svg>
