<svg width="54" height="54" viewBox="0 0 54 54" fill="none" xmlns="http://www.w3.org/2000/svg">
<path d="M48.9469 42.7269C49.9119 41.3801 49.6025 39.506 48.2558 38.5409C46.909 37.5758 45.0349 37.8853 44.0698 39.232L48.9469 42.7269ZM32.4352 6.71556C34.0356 7.14439 35.6806 6.19464 36.1094 4.59424C36.5383 2.99384 35.5885 1.34883 33.9881 0.920007L32.4352 6.71556ZM44.0698 39.232C41.514 42.7987 37.9052 45.4751 33.7502 46.8855L35.6789 52.5671C41.021 50.7537 45.6608 47.3126 48.9469 42.7269L44.0698 39.232ZM33.7502 46.8855C29.5953 48.296 25.1029 48.3695 20.904 47.0957L19.1623 52.8374C24.5609 54.475 30.3368 54.3805 35.6789 52.5671L33.7502 46.8855ZM20.904 47.0957C16.7052 45.822 13.0107 43.2651 10.3396 39.784L5.57947 43.4366C9.01378 47.9122 13.7638 51.1998 19.1623 52.8374L20.904 47.0957ZM10.3396 39.784C7.66845 36.3029 6.15481 32.0726 6.01125 27.6871L0.0144615 27.8834C0.199045 33.5219 2.14515 38.9609 5.57947 43.4366L10.3396 39.784ZM6.01125 27.6871C5.86768 23.3016 7.10141 18.9814 9.53914 15.333L4.55033 11.9996C1.41609 16.6903 -0.170122 22.245 0.0144615 27.8834L6.01125 27.6871ZM9.53914 15.333C11.9769 11.6847 15.4962 8.89159 19.6028 7.34598L17.4893 1.73054C12.2094 3.71775 7.68456 7.30889 4.55033 11.9996L9.53914 15.333ZM19.6028 7.34598C23.7093 5.80037 28.1969 5.57991 32.4352 6.71556L33.9881 0.920007C28.5389 -0.540114 22.7691 -0.256665 17.4893 1.73054L19.6028 7.34598Z" fill="#D0D0D0"/>
</svg>
